<?xml version="1.0" standalone="no"?>
<!DOCTYPE svg PUBLIC "-//W3C//DTD SVG 20010904//EN"
 "http://www.w3.org/TR/2001/REC-SVG-20010904/DTD/svg10.dtd">
<svg version="1.0" xmlns="http://www.w3.org/2000/svg"
 width="500.000000pt" height="500.000000pt" viewBox="0 0 500.000000 500.000000"
 preserveAspectRatio="xMidYMid meet">
<metadata>
Created by potrace 1.11, written by Peter Selinger 2001-2013
</metadata>
<g transform="translate(0.000000,500.000000) scale(0.100000,-0.100000)"
fill="#000000" stroke="none">
<path d="M2458 4985 c-2 -2 -55 -5 -118 -9 -63 -3 -132 -9 -152 -11 -44 -6
-230 -40 -273 -49 -86 -20 -309 -91 -330 -106 -5 -4 -21 -11 -35 -15 -52 -15
-218 -98 -324 -162 -179 -108 -392 -276 -510 -402 -103 -111 -148 -163 -171
-195 -11 -15 -26 -34 -32 -41 -7 -8 -13 -16 -13 -20 0 -3 -9 -16 -21 -28 -33
-36 -172 -265 -218 -362 -55 -115 -131 -309 -146 -372 -3 -10 -15 -61 -28
-113 -14 -52 -27 -111 -31 -130 -3 -19 -8 -46 -11 -60 -15 -74 -20 -160 -20
-400 0 -146 3 -293 7 -327 9 -80 57 -313 69 -335 5 -10 7 -18 5 -18 -3 0 13
-53 35 -117 225 -653 711 -1190 1329 -1469 116 -52 320 -127 320 -117 0 3 6 1
13 -4 6 -5 39 -15 72 -22 33 -7 71 -17 85 -21 14 -5 57 -13 95 -19 39 -6 86
-13 105 -16 124 -20 425 -26 560 -12 247 25 448 73 670 159 119 46 273 120
340 163 25 16 62 39 83 50 39 22 240 167 268 194 9 9 49 45 89 81 40 36 85 78
99 94 14 16 50 55 79 87 69 75 221 278 239 319 3 8 16 29 29 46 34 46 126 227
172 339 42 102 98 278 125 395 15 62 45 259 45 290 0 8 3 40 7 70 8 67 9 290
1 380 -30 317 -111 615 -243 886 -27 55 -58 113 -68 130 -24 34 -34 51 -75
122 -59 101 -227 311 -336 417 -205 201 -439 368 -674 481 -209 100 -433 172
-650 209 -52 9 -105 18 -117 20 -39 6 -341 24 -345 20z"/>
</g>
</svg>
